<svg xmlns="http://www.w3.org/2000/svg" width="39" height="39" viewBox="0 0 39 39" version="1.1"><defs><polygon points="18.5 37.4 0 37.4 0 0 18.5 0 37 0 37 37.4"/></defs><g stroke="none" stroke-width="1" fill="none" fill-rule="evenodd"><g transform="translate(1.000000, 0.000000)"><g transform="translate(0.000000, 0.062439)"><mask fill="white"/><path d="M18.5 0C13.5 0 12.9 0 10.9 0.1 8.9 0.2 7.6 0.5 6.4 1 5.2 1.5 4.1 2.1 3.1 3.2 2.1 4.2 1.4 5.2 1 6.5 0.5 7.7 0.2 9 0.1 11 0 13 0 13.6 0 18.7 0 23.8 0 24.4 0.1 26.4 0.2 28.4 0.5 29.8 1 31 1.4 32.2 2.1 33.2 3.1 34.3 4.1 35.3 5.2 36 6.4 36.4 7.6 36.9 8.9 37.2 10.9 37.3 12.9 37.4 13.5 37.4 18.5 37.4 23.5 37.4 24.2 37.4 26.2 37.3 28.1 37.2 29.5 36.9 30.6 36.4 31.9 36 32.9 35.3 33.9 34.3 35 33.2 35.6 32.2 36.1 31 36.5 29.8 36.8 28.4 36.9 26.4 37 24.4 37 23.8 37 18.7 37 13.6 37 13 36.9 11 36.8 9 36.5 7.7 36.1 6.5 35.6 5.2 35 4.2 33.9 3.2 32.9 2.1 31.9 1.5 30.6 1 29.5 0.5 28.1 0.2 26.2 0.1 24.2 0 23.5 0 18.5 0M18.5 3.4C23.5 3.4 24 3.4 26 3.5 27.8 3.6 28.8 3.9 29.4 4.1 30.3 4.5 30.9 4.9 31.6 5.5 32.2 6.2 32.6 6.8 33 7.7 33.2 8.3 33.5 9.3 33.6 11.2 33.7 13.1 33.7 13.7 33.7 18.7 33.7 23.7 33.7 24.3 33.6 26.3 33.5 28.1 33.2 29.1 33 29.7 32.6 30.6 32.2 31.2 31.6 31.9 30.9 32.6 30.3 33 29.4 33.3 28.8 33.6 27.8 33.9 26 33.9 24 34 23.5 34 18.5 34 13.6 34 13 34 11 33.9 9.2 33.9 8.2 33.6 7.6 33.3 6.7 33 6.1 32.6 5.5 31.9 4.8 31.2 4.4 30.6 4.1 29.7 3.8 29.1 3.5 28.1 3.4 26.3 3.4 24.3 3.3 23.7 3.3 18.7 3.3 13.7 3.4 13.1 3.4 11.2 3.5 9.3 3.8 8.3 4.1 7.7 4.4 6.8 4.8 6.2 5.5 5.5 6.1 4.9 6.7 4.5 7.6 4.1 8.2 3.9 9.2 3.6 11 3.5 13 3.4 13.6 3.4 18.5 3.4" fill="#000000" mask="url(#mask-2)"/></g><path d="M18.5 25C15.1 25 12.3 22.2 12.3 18.8 12.3 15.3 15.1 12.5 18.5 12.5 21.9 12.5 24.7 15.3 24.7 18.8 24.7 22.2 21.9 25 18.5 25M18.5 9.2C13.3 9.2 9 13.5 9 18.8 9 24.1 13.3 28.4 18.5 28.4 23.8 28.4 28 24.1 28 18.8 28 13.5 23.8 9.2 18.5 9.2M30.6 8.8C30.6 10 29.6 11 28.4 11 27.2 11 26.2 10 26.2 8.8 26.2 7.6 27.2 6.5 28.4 6.5 29.6 6.5 30.6 7.6 30.6 8.8" fill="#000000"/></g></g></svg>
