<svg xmlns="http://www.w3.org/2000/svg" width="39" height="39" viewBox="0 0 39 39" version="1.1"><path d="M39 7.8C37.6 8.5 36 8.9 34.4 9.1 36.1 8 37.4 6.6 38 4.6 36.4 5.5 34.7 6.2 32.9 6.5 31.5 5 29.4 4 27.1 4 22.7 4 19.1 7.6 19.1 12 19.1 12.6 19.2 13.2 19.3 13.8 12.6 13.4 6.8 10.3 2.8 5.5 2.1 6.7 1.7 8 1.7 9.5 1.7 12.3 3.1 14.8 5.2 16.2 3.9 16.2 2.8 15.8 1.6 15.2L1.6 15.3C1.6 19.2 4.4 22.3 8 23.1 7.3 23.3 6.7 23.4 5.9 23.4 5.4 23.4 4.9 23.3 4.4 23.2 5.4 26.3 8.3 28.6 11.8 28.7 9.1 30.8 5.6 32.1 1.9 32.1 1.2 32.1 0.7 32.1 0 32 3.5 34.3 7.7 35.7 12.3 35.7 27 35.7 35 23.5 35 13L35 11.9C36.5 10.9 37.9 9.4 39 7.8L39 7.8 39 7.8Z" /></svg>
