<svg id="Layer_1" data-name="Layer 1" xmlns="http://www.w3.org/2000/svg" viewBox="0 0 288 120.95"><title>logo</title><rect width="68.48" height="111.17" rx="1.19" ry="1.19" style="fill:#c3002f"/><rect x="73.17" y="9.78" width="68.48" height="111.17" rx="1.19" ry="1.19" style="fill:#ff8300"/><rect x="146.35" width="68.48" height="111.17" rx="1.19" ry="1.19" style="fill:#00548b"/><rect x="219.52" y="9.78" width="68.48" height="111.17" rx="1.19" ry="1.19" style="fill:#b6bd00"/><path d="M49.42,93.8a2.36,2.36,0,0,1-2.12-1.41L36.24,69.65H21.73a.42.42,0,0,0-.47.47V91.37a2.45,2.45,0,0,1-.63,1.8A2.23,2.23,0,0,1,19,93.8a2.13,2.13,0,0,1-1.57-.63,2.44,2.44,0,0,1-.63-1.8V42.27q0-2.12,2.2-2.12H35.53q7.53,0,11.84,3.92T51.69,54.9a14.46,14.46,0,0,1-2.9,9.29,14.22,14.22,0,0,1-8.08,4.9L51.38,90.59a3.21,3.21,0,0,1,.24,1.1,2.19,2.19,0,0,1-.55,1.49A2.08,2.08,0,0,1,49.42,93.8Zm-14-28.39q5.8,0,8.78-2.71t3-7.8q0-5.1-3-7.8t-8.78-2.71H21.73a.42.42,0,0,0-.47.47V64.94a.42.42,0,0,0,.47.47Z" style="fill:#fff"/><path d="M91.18,42.27a2.44,2.44,0,0,1,.63-1.8,2.13,2.13,0,0,1,1.57-.63,2.23,2.23,0,0,1,1.65.63,2.45,2.45,0,0,1,.63,1.8V88.78a.42.42,0,0,0,.47.47h25.26a2.29,2.29,0,0,1,1.69.59,2.28,2.28,0,0,1,0,3.06,2.29,2.29,0,0,1-1.69.59H93.3a1.87,1.87,0,0,1-2.12-2.12Z" style="fill:#fff"/><path d="M158.35,42.66q0-2.82,2.67-2.82,2,0,3,2.43l16.55,36.86h.31l16.31-36.86q1-2.43,3-2.43,2.67,0,2.67,2.82V91.37a2.45,2.45,0,0,1-.63,1.8,2.23,2.23,0,0,1-1.65.63,2.13,2.13,0,0,1-1.57-.63,2.44,2.44,0,0,1-.63-1.8V51.06H198L183.53,83.14a7.09,7.09,0,0,1-1.37,2.16,2.25,2.25,0,0,1-1.53.51,2.37,2.37,0,0,1-1.61-.51,7.06,7.06,0,0,1-1.37-2.16L163.21,51.06h-.39V91.37a2.45,2.45,0,0,1-.63,1.8,2.23,2.23,0,0,1-1.65.63,2.13,2.13,0,0,1-1.57-.63,2.44,2.44,0,0,1-.63-1.8Z" style="fill:#fff"/><path d="M236.47,82.27q-.31-1-.59-2.24a27,27,0,0,1-.47-3q-.2-1.8-.31-4.27T235,66.82q0-3.45.12-5.92t.31-4.28a27.12,27.12,0,0,1,.47-3q.27-1.22.59-2.24a16.85,16.85,0,0,1,6.35-9,18.94,18.94,0,0,1,11-3,20.15,20.15,0,0,1,10,2.39A14.14,14.14,0,0,1,270,48.23a3.63,3.63,0,0,1,.31,1.25,2,2,0,0,1-.59,1.57,2.15,2.15,0,0,1-1.53.55,2.27,2.27,0,0,1-2-1.41,13.19,13.19,0,0,0-5-4.86,15.24,15.24,0,0,0-7.45-1.73q-10,0-12.94,9-.24.78-.47,1.84t-.43,2.71q-.2,1.65-.27,4t-.08,5.65q0,3.29.08,5.65t.27,4q.19,1.65.43,2.71t.47,1.84q3,9,13,9A14.39,14.39,0,0,0,262,87.8a12.51,12.51,0,0,0,4.82-6.63,22,22,0,0,0,.9-3.92,43.53,43.53,0,0,0,.35-6.2.42.42,0,0,0-.47-.47H256.39a2.07,2.07,0,0,1-1.65-.63,2.3,2.3,0,0,1,0-3,2.07,2.07,0,0,1,1.65-.63h14a2.1,2.1,0,0,1,1.49.59,1.91,1.91,0,0,1,.63,1.45v2a55.31,55.31,0,0,1-.39,7,25.07,25.07,0,0,1-1,4.82,16.52,16.52,0,0,1-6.35,9,18.84,18.84,0,0,1-10.9,3.06,19.12,19.12,0,0,1-11-3A16.77,16.77,0,0,1,236.47,82.27Z" style="fill:#fff"/></svg>