<?xml version="1.0" encoding="UTF-8"?>
<svg width="30px" height="28px" viewBox="0 0 30 28" version="1.1" xmlns="http://www.w3.org/2000/svg" xmlns:xlink="http://www.w3.org/1999/xlink">
    <!-- Generator: Sketch 42 (36781) - http://www.bohemiancoding.com/sketch -->
    <title>“</title>
    <desc>Created with Sketch.</desc>
    <defs></defs>
    <g id="Page-1" stroke="none" stroke-width="1" fill="none" fill-rule="evenodd">
        <path d="M19.885,27.57 C18.8516615,27.57 18.335,27.0533385 18.335,26.02 L18.335,15.48 C18.335,14.1366599 18.696663,12.9483385 19.42,11.915 L26.705,1.685 C27.2216692,0.8583292 27.7899969,0.445 28.41,0.445 C29.3400046,0.445 29.805,0.90999535 29.805,1.84 L29.805,26.02 C29.805,27.0533385 29.2883385,27.57 28.255,27.57 L19.885,27.57 Z M1.905,27.57 C0.8716615,27.57 0.355,27.0533385 0.355,26.02 L0.355,15.48 C0.355,14.6533292 0.40666615,13.9816692 0.51,13.465 C0.61333385,12.9483307 0.8716646,12.4316692 1.285,11.915 L8.725,1.685 C9.24166925,0.8583292 9.8099969,0.445 10.43,0.445 C11.3600047,0.445 11.825,0.90999535 11.825,1.84 L11.825,26.02 C11.825,27.0533385 11.3083385,27.57 10.275,27.57 L1.905,27.57 Z" id="“" fill="#FFFFFF"></path>
    </g>
</svg>